<?xml version="1.0" encoding="utf-8"?>
<!-- Generator: Adobe Illustrator 18.0.0, SVG Export Plug-In . SVG Version: 6.00 Build 0)  -->
<!DOCTYPE svg PUBLIC "-//W3C//DTD SVG 1.1//EN" "http://www.w3.org/Graphics/SVG/1.1/DTD/svg11.dtd">
<svg version="1.1" id="Layer_1" xmlns="http://www.w3.org/2000/svg" xmlns:xlink="http://www.w3.org/1999/xlink" x="0px" y="0px"
	 viewBox="31.4 57.1 395.7 387.1" enable-background="new 31.4 57.1 395.7 387.1" xml:space="preserve">
<g>
	<path fill="#8d48b4" d="M228.6,285.7c62.9,0,114.3-51.4,114.3-114.3S291.4,57.1,228.6,57.1s-114.3,51.4-114.3,114.3
		S165.7,285.7,228.6,285.7z M228.6,85.7c47.1,0,85.7,38.6,85.7,85.7s-38.6,85.7-85.7,85.7s-85.7-38.6-85.7-85.7
		S181.4,85.7,228.6,85.7z"/>
	<path fill="#8d48b4" d="M352.9,311.4H104.3c-40,0-72.9,32.9-72.9,72.9v60h395.7v-60C425.7,344.3,392.9,311.4,352.9,311.4z
		 M382.9,415.7H74.3v-31.4c0-17.1,12.9-30,30-30h250c17.1,0,30,12.9,30,30v31.4H382.9z"/>
</g>
</svg>
