<?xml version="1.0" encoding="utf-8"?>
<!-- Generator: Adobe Illustrator 18.0.0, SVG Export Plug-In . SVG Version: 6.00 Build 0)  -->
<!DOCTYPE svg PUBLIC "-//W3C//DTD SVG 1.1//EN" "http://www.w3.org/Graphics/SVG/1.1/DTD/svg11.dtd">
<svg version="1.1" id="Layer_1" xmlns="http://www.w3.org/2000/svg" xmlns:xlink="http://www.w3.org/1999/xlink" x="0px" y="0px"
	 viewBox="4.3 77.1 467.1 350" enable-background="new 4.3 77.1 467.1 350" xml:space="preserve">
<g>
	<path fill="#8d48b4" d="M75.7,142.9c0-20,17.1-37.1,37.1-37.1h250c20,0,37.1,17.1,37.1,37.1v188.6h28.6V142.9
		c0-35.7-30-65.7-65.7-65.7h-250c-35.7,0-65.7,30-65.7,65.7v188.6h28.6V142.9z"/>
	<path fill="#8d48b4" d="M95.7,330H380V128.6H95.7V330z M102.9,135.7h270v187.1h-270V135.7z"/>
	<path fill="#8d48b4" d="M471.4,345.7H4.3v28.6l0,0v1.4c0,15.7,5.7,51.4,65.7,51.4h335.7c60,0,65.7-35.7,65.7-51.4V345.7z
		 M442.9,375.7c0,7.1,0,22.9-37.1,22.9H70c-37.1,0-37.1-15.7-37.1-22.9v-1.4L442.9,375.7L442.9,375.7z"/>
</g>
</svg>
