<?xml version="1.0" encoding="utf-8"?>
<!-- Generator: Adobe Illustrator 18.0.0, SVG Export Plug-In . SVG Version: 6.00 Build 0)  -->
<!DOCTYPE svg PUBLIC "-//W3C//DTD SVG 1.1//EN" "http://www.w3.org/Graphics/SVG/1.1/DTD/svg11.dtd">
<svg version="1.1" id="Layer_1" xmlns="http://www.w3.org/2000/svg" xmlns:xlink="http://www.w3.org/1999/xlink" x="0px" y="0px"
	 viewBox="-10 92.9 481.4 334.3" enable-background="new -10 92.9 481.4 334.3" xml:space="preserve">
<g>
	<g>
		<path fill="#8d48b4" d="M397.1,92.9H62.9c-40,0-72.9,32.9-72.9,72.9v188.6c0,40,32.9,72.9,72.9,72.9h335.7
			c40,0,72.9-32.9,72.9-72.9V165.7C470,125.7,437.1,92.9,397.1,92.9z M228.6,228.6L67.1,135.7h321.4L228.6,228.6z M427.1,354.3
			c0,17.1-12.9,30-30,30H62.9c-17.1,0-30-12.9-30-30V165.7v-1.4l180,102.9c4.3,4.3,10,5.7,15.7,5.7s11.4-1.4,15.7-5.7l182.9-105.7
			c0,1.4,0,2.9,0,2.9L427.1,354.3L427.1,354.3z"/>
	</g>
</g>
</svg>
